<svg width="192" height="167" viewBox="0 0 192 167" fill="none" xmlns="http://www.w3.org/2000/svg">
<rect width="192" height="167" fill="#1E1E1E"/>
<rect width="192" height="167" fill="white"/>
<mask id="path-2-outside-1_0_1" maskUnits="userSpaceOnUse" x="51" y="43" width="66" height="79" fill="black">
<rect fill="white" x="51" y="43" width="66" height="79"/>
<path d="M76.288 120.352C73.3013 120.352 70.144 119.883 66.816 118.944C63.5733 118.091 60.672 116.64 58.112 114.592C55.6373 112.544 53.9733 109.813 53.12 106.4C53.0347 105.973 52.9493 105.504 52.864 104.992C52.864 104.48 52.864 103.968 52.864 103.456C52.864 100.811 53.4613 98.2507 54.656 95.776C55.8507 93.3013 57.3013 91.424 59.008 90.144H59.136C59.3067 90.144 59.52 90.3573 59.776 90.784C60.1173 91.1253 60.1173 91.3813 59.776 91.552C58.9227 92.4053 58.2827 93.3867 57.856 94.496C57.5147 95.52 57.344 96.6293 57.344 97.824C57.344 99.4453 57.6 101.109 58.112 102.816C58.7093 104.437 59.4347 105.845 60.288 107.04C62.4213 110.027 65.3653 112.416 69.12 114.208C72.96 115.915 76.7147 116.768 80.384 116.768C85.4187 116.768 89.3013 115.275 92.032 112.288C94.848 109.301 96.256 105.632 96.256 101.28C96.256 98.6347 95.744 95.9893 94.72 93.344C93.3547 89.6747 91.52 86.0907 89.216 82.592C86.9973 79.008 84.9493 75.5093 83.072 72.096C81.4507 69.024 80.64 65.9093 80.64 62.752C80.64 59.424 81.664 56.224 83.712 53.152C85.76 50.4213 88.448 48.2453 91.776 46.624C95.1893 44.9173 98.6453 44.064 102.144 44.064C104.533 44.064 106.837 44.4907 109.056 45.344C111.275 46.1973 113.28 47.6053 115.072 49.568C115.584 50.336 115.84 51.3173 115.84 52.512C115.84 54.2187 115.499 55.5413 114.816 56.48C114.048 57.5893 113.195 59.04 112.256 60.832C111.317 62.624 110.763 63.8613 110.592 64.544C110.421 64.6293 109.995 64.8 109.312 65.056C108.715 65.2267 108.331 65.184 108.16 64.928C108.501 64.2453 108.971 63.008 109.568 61.216C110.165 59.424 110.464 57.8027 110.464 56.352C110.464 55.4133 110.421 54.3893 110.336 53.28C110.336 52.0853 109.781 51.0613 108.672 50.208C107.648 49.2693 106.325 48.4587 104.704 47.776C103.083 47.0933 101.12 46.752 98.816 46.752C94.1227 46.752 90.5387 48.1173 88.064 50.848C85.5893 53.5787 84.352 56.5653 84.352 59.808C84.352 61.4293 84.6933 63.0507 85.376 64.672C86.656 67.744 88.448 70.6453 90.752 73.376C93.056 76.1067 95.3173 78.9227 97.536 81.824C99.84 84.64 101.632 87.712 102.912 91.04C103.765 93.2587 104.192 95.52 104.192 97.824C104.192 101.152 103.339 104.181 101.632 106.912C100.011 109.643 97.792 112.032 94.976 114.08C92.2453 116.043 89.2587 117.579 86.016 118.688C82.7733 119.797 79.5307 120.352 76.288 120.352Z"/>
</mask>
<path d="M76.288 120.352C73.3013 120.352 70.144 119.883 66.816 118.944C63.5733 118.091 60.672 116.64 58.112 114.592C55.6373 112.544 53.9733 109.813 53.12 106.4C53.0347 105.973 52.9493 105.504 52.864 104.992C52.864 104.48 52.864 103.968 52.864 103.456C52.864 100.811 53.4613 98.2507 54.656 95.776C55.8507 93.3013 57.3013 91.424 59.008 90.144H59.136C59.3067 90.144 59.52 90.3573 59.776 90.784C60.1173 91.1253 60.1173 91.3813 59.776 91.552C58.9227 92.4053 58.2827 93.3867 57.856 94.496C57.5147 95.52 57.344 96.6293 57.344 97.824C57.344 99.4453 57.6 101.109 58.112 102.816C58.7093 104.437 59.4347 105.845 60.288 107.04C62.4213 110.027 65.3653 112.416 69.12 114.208C72.96 115.915 76.7147 116.768 80.384 116.768C85.4187 116.768 89.3013 115.275 92.032 112.288C94.848 109.301 96.256 105.632 96.256 101.28C96.256 98.6347 95.744 95.9893 94.72 93.344C93.3547 89.6747 91.52 86.0907 89.216 82.592C86.9973 79.008 84.9493 75.5093 83.072 72.096C81.4507 69.024 80.64 65.9093 80.64 62.752C80.64 59.424 81.664 56.224 83.712 53.152C85.76 50.4213 88.448 48.2453 91.776 46.624C95.1893 44.9173 98.6453 44.064 102.144 44.064C104.533 44.064 106.837 44.4907 109.056 45.344C111.275 46.1973 113.28 47.6053 115.072 49.568C115.584 50.336 115.84 51.3173 115.84 52.512C115.84 54.2187 115.499 55.5413 114.816 56.48C114.048 57.5893 113.195 59.04 112.256 60.832C111.317 62.624 110.763 63.8613 110.592 64.544C110.421 64.6293 109.995 64.8 109.312 65.056C108.715 65.2267 108.331 65.184 108.16 64.928C108.501 64.2453 108.971 63.008 109.568 61.216C110.165 59.424 110.464 57.8027 110.464 56.352C110.464 55.4133 110.421 54.3893 110.336 53.28C110.336 52.0853 109.781 51.0613 108.672 50.208C107.648 49.2693 106.325 48.4587 104.704 47.776C103.083 47.0933 101.12 46.752 98.816 46.752C94.1227 46.752 90.5387 48.1173 88.064 50.848C85.5893 53.5787 84.352 56.5653 84.352 59.808C84.352 61.4293 84.6933 63.0507 85.376 64.672C86.656 67.744 88.448 70.6453 90.752 73.376C93.056 76.1067 95.3173 78.9227 97.536 81.824C99.84 84.64 101.632 87.712 102.912 91.04C103.765 93.2587 104.192 95.52 104.192 97.824C104.192 101.152 103.339 104.181 101.632 106.912C100.011 109.643 97.792 112.032 94.976 114.08C92.2453 116.043 89.2587 117.579 86.016 118.688C82.7733 119.797 79.5307 120.352 76.288 120.352Z" fill="black"/>
<path d="M66.816 118.944L67.0875 117.982L67.079 117.979L67.0705 117.977L66.816 118.944ZM58.112 114.592L57.4744 115.362L57.4808 115.368L57.4873 115.373L58.112 114.592ZM53.12 106.4L52.1394 106.596L52.1441 106.619L52.1499 106.643L53.12 106.4ZM52.864 104.992H51.864V105.075L51.8776 105.156L52.864 104.992ZM59.008 90.144V89.144H58.6747L58.408 89.344L59.008 90.144ZM59.776 90.784L58.9185 91.2985L58.9818 91.4041L59.0689 91.4911L59.776 90.784ZM59.776 91.552L59.3288 90.6576L59.1836 90.7301L59.0689 90.8449L59.776 91.552ZM57.856 94.496L56.9227 94.137L56.9145 94.1582L56.9073 94.1798L57.856 94.496ZM58.112 102.816L57.1542 103.103L57.163 103.133L57.1737 103.162L58.112 102.816ZM60.288 107.04L59.4743 107.621L59.4743 107.621L60.288 107.04ZM69.12 114.208L68.6893 115.11L68.7015 115.116L68.7139 115.122L69.12 114.208ZM92.032 112.288L91.3044 111.602L91.2991 111.608L91.294 111.613L92.032 112.288ZM94.72 93.344L93.7827 93.6928L93.7874 93.705L94.72 93.344ZM89.216 82.592L88.3657 83.1184L88.3731 83.1303L88.3808 83.142L89.216 82.592ZM83.072 72.096L82.1876 72.5628L82.1916 72.5704L82.1958 72.5779L83.072 72.096ZM83.712 53.152L82.912 52.552L82.8953 52.5742L82.88 52.5973L83.712 53.152ZM91.776 46.624L92.214 47.523L92.2232 47.5184L91.776 46.624ZM115.072 49.568L115.904 49.0133L115.862 48.9499L115.81 48.8937L115.072 49.568ZM114.816 56.48L114.007 55.8918L114 55.9012L113.994 55.9108L114.816 56.48ZM112.256 60.832L113.142 61.296L113.142 61.296L112.256 60.832ZM110.592 64.544L111.039 65.4384L111.451 65.2327L111.562 64.7865L110.592 64.544ZM109.312 65.056L109.587 66.0175L109.625 66.0065L109.663 65.9923L109.312 65.056ZM108.16 64.928L107.266 64.4808L107.006 64.9998L107.328 65.4827L108.16 64.928ZM109.568 61.216L108.619 60.8998L108.619 60.8998L109.568 61.216ZM110.336 53.28H109.336V53.3184L109.339 53.3567L110.336 53.28ZM108.672 50.208L107.996 50.9452L108.028 50.9743L108.062 51.0006L108.672 50.208ZM104.704 47.776L105.092 46.8544L105.092 46.8544L104.704 47.776ZM88.064 50.848L88.805 51.5195L88.805 51.5195L88.064 50.848ZM85.376 64.672L86.2991 64.2874L86.2976 64.2839L85.376 64.672ZM90.752 73.376L89.9877 74.0209L89.9877 74.0209L90.752 73.376ZM97.536 81.824L96.7416 82.4314L96.7516 82.4445L96.762 82.4572L97.536 81.824ZM102.912 91.04L101.979 91.399L101.979 91.399L102.912 91.04ZM101.632 106.912L100.784 106.382L100.778 106.392L100.772 106.401L101.632 106.912ZM94.976 114.08L95.5596 114.892L95.5642 114.889L94.976 114.08ZM86.016 118.688L86.3397 119.634L86.3397 119.634L86.016 118.688ZM76.288 119.352C73.4062 119.352 70.3407 118.899 67.0875 117.982L66.5445 119.906C69.9473 120.866 73.1964 121.352 76.288 121.352V119.352ZM67.0705 117.977C63.9597 117.158 61.1851 115.77 58.7367 113.811L57.4873 115.373C60.1589 117.51 63.187 119.023 66.5615 119.911L67.0705 117.977ZM58.7496 113.822C56.455 111.923 54.8969 109.385 54.0901 106.157L52.1499 106.643C53.0497 110.242 54.8197 113.165 57.4744 115.362L58.7496 113.822ZM54.1006 106.204C54.0177 105.79 53.9343 105.331 53.8504 104.828L51.8776 105.156C51.9644 105.677 52.0516 106.157 52.1394 106.596L54.1006 106.204ZM53.864 104.992C53.864 104.991 53.864 104.99 53.864 104.989C53.864 104.988 53.864 104.987 53.864 104.986C53.864 104.985 53.864 104.984 53.864 104.983C53.864 104.982 53.864 104.981 53.864 104.98C53.864 104.979 53.864 104.978 53.864 104.977C53.864 104.976 53.864 104.975 53.864 104.974C53.864 104.973 53.864 104.972 53.864 104.971C53.864 104.97 53.864 104.969 53.864 104.968C53.864 104.967 53.864 104.966 53.864 104.965C53.864 104.964 53.864 104.963 53.864 104.962C53.864 104.961 53.864 104.96 53.864 104.959C53.864 104.958 53.864 104.957 53.864 104.956C53.864 104.955 53.864 104.954 53.864 104.953C53.864 104.952 53.864 104.951 53.864 104.95C53.864 104.949 53.864 104.948 53.864 104.947C53.864 104.946 53.864 104.945 53.864 104.944C53.864 104.943 53.864 104.942 53.864 104.941C53.864 104.94 53.864 104.939 53.864 104.938C53.864 104.937 53.864 104.936 53.864 104.935C53.864 104.934 53.864 104.933 53.864 104.932C53.864 104.931 53.864 104.93 53.864 104.929C53.864 104.928 53.864 104.927 53.864 104.926C53.864 104.925 53.864 104.924 53.864 104.923C53.864 104.922 53.864 104.921 53.864 104.92C53.864 104.919 53.864 104.918 53.864 104.917C53.864 104.916 53.864 104.915 53.864 104.914C53.864 104.913 53.864 104.912 53.864 104.911C53.864 104.91 53.864 104.909 53.864 104.908C53.864 104.907 53.864 104.906 53.864 104.905C53.864 104.904 53.864 104.903 53.864 104.902C53.864 104.901 53.864 104.9 53.864 104.899C53.864 104.898 53.864 104.897 53.864 104.896C53.864 104.895 53.864 104.894 53.864 104.893C53.864 104.892 53.864 104.891 53.864 104.89C53.864 104.889 53.864 104.888 53.864 104.887C53.864 104.886 53.864 104.885 53.864 104.884C53.864 104.883 53.864 104.882 53.864 104.881C53.864 104.88 53.864 104.879 53.864 104.878C53.864 104.877 53.864 104.876 53.864 104.875C53.864 104.874 53.864 104.873 53.864 104.872C53.864 104.871 53.864 104.87 53.864 104.869C53.864 104.868 53.864 104.867 53.864 104.866C53.864 104.865 53.864 104.864 53.864 104.863C53.864 104.862 53.864 104.861 53.864 104.86C53.864 104.859 53.864 104.858 53.864 104.857C53.864 104.856 53.864 104.855 53.864 104.854C53.864 104.853 53.864 104.852 53.864 104.851C53.864 104.85 53.864 104.849 53.864 104.848C53.864 104.847 53.864 104.846 53.864 104.845C53.864 104.844 53.864 104.843 53.864 104.842C53.864 104.841 53.864 104.84 53.864 104.839C53.864 104.838 53.864 104.837 53.864 104.836C53.864 104.835 53.864 104.834 53.864 104.833C53.864 104.832 53.864 104.831 53.864 104.83C53.864 104.829 53.864 104.828 53.864 104.827C53.864 104.826 53.864 104.825 53.864 104.824C53.864 104.823 53.864 104.822 53.864 104.821C53.864 104.82 53.864 104.819 53.864 104.818C53.864 104.817 53.864 104.816 53.864 104.815C53.864 104.814 53.864 104.813 53.864 104.812C53.864 104.811 53.864 104.81 53.864 104.809C53.864 104.808 53.864 104.807 53.864 104.806C53.864 104.805 53.864 104.804 53.864 104.803C53.864 104.802 53.864 104.801 53.864 104.8C53.864 104.799 53.864 104.798 53.864 104.797C53.864 104.796 53.864 104.795 53.864 104.794C53.864 104.793 53.864 104.792 53.864 104.791C53.864 104.79 53.864 104.789 53.864 104.788C53.864 104.787 53.864 104.786 53.864 104.785C53.864 104.784 53.864 104.783 53.864 104.782C53.864 104.781 53.864 104.78 53.864 104.779C53.864 104.778 53.864 104.777 53.864 104.776C53.864 104.775 53.864 104.774 53.864 104.773C53.864 104.772 53.864 104.771 53.864 104.77C53.864 104.769 53.864 104.768 53.864 104.767C53.864 104.766 53.864 104.765 53.864 104.764C53.864 104.763 53.864 104.762 53.864 104.761C53.864 104.76 53.864 104.759 53.864 104.758C53.864 104.757 53.864 104.756 53.864 104.755C53.864 104.754 53.864 104.753 53.864 104.752C53.864 104.751 53.864 104.75 53.864 104.749C53.864 104.748 53.864 104.747 53.864 104.746C53.864 104.745 53.864 104.744 53.864 104.743C53.864 104.742 53.864 104.741 53.864 104.74C53.864 104.739 53.864 104.738 53.864 104.737C53.864 104.736 53.864 104.735 53.864 104.734C53.864 104.733 53.864 104.732 53.864 104.731C53.864 104.73 53.864 104.729 53.864 104.728C53.864 104.727 53.864 104.726 53.864 104.725C53.864 104.724 53.864 104.723 53.864 104.722C53.864 104.721 53.864 104.72 53.864 104.719C53.864 104.718 53.864 104.717 53.864 104.716C53.864 104.715 53.864 104.714 53.864 104.713C53.864 104.712 53.864 104.711 53.864 104.71C53.864 104.709 53.864 104.708 53.864 104.707C53.864 104.706 53.864 104.705 53.864 104.704C53.864 104.703 53.864 104.702 53.864 104.701C53.864 104.7 53.864 104.699 53.864 104.698C53.864 104.697 53.864 104.696 53.864 104.695C53.864 104.694 53.864 104.693 53.864 104.692C53.864 104.691 53.864 104.69 53.864 104.689C53.864 104.688 53.864 104.687 53.864 104.686C53.864 104.685 53.864 104.684 53.864 104.683C53.864 104.682 53.864 104.681 53.864 104.68C53.864 104.679 53.864 104.678 53.864 104.677C53.864 104.676 53.864 104.675 53.864 104.674C53.864 104.673 53.864 104.672 53.864 104.671C53.864 104.67 53.864 104.669 53.864 104.668C53.864 104.667 53.864 104.666 53.864 104.665C53.864 104.664 53.864 104.663 53.864 104.662C53.864 104.661 53.864 104.66 53.864 104.659C53.864 104.658 53.864 104.657 53.864 104.656C53.864 104.655 53.864 104.654 53.864 104.653C53.864 104.652 53.864 104.651 53.864 104.65C53.864 104.649 53.864 104.648 53.864 104.647C53.864 104.646 53.864 104.645 53.864 104.644C53.864 104.643 53.864 104.642 53.864 104.641C53.864 104.64 53.864 104.639 53.864 104.638C53.864 104.637 53.864 104.636 53.864 104.635C53.864 104.634 53.864 104.633 53.864 104.632C53.864 104.631 53.864 104.63 53.864 104.629C53.864 104.628 53.864 104.627 53.864 104.626C53.864 104.625 53.864 104.624 53.864 104.623C53.864 104.622 53.864 104.621 53.864 104.62C53.864 104.619 53.864 104.618 53.864 104.617C53.864 104.616 53.864 104.615 53.864 104.614C53.864 104.613 53.864 104.612 53.864 104.611C53.864 104.61 53.864 104.609 53.864 104.608C53.864 104.607 53.864 104.606 53.864 104.605C53.864 104.604 53.864 104.603 53.864 104.602C53.864 104.601 53.864 104.6 53.864 104.599C53.864 104.598 53.864 104.597 53.864 104.596C53.864 104.595 53.864 104.594 53.864 104.593C53.864 104.592 53.864 104.591 53.864 104.59C53.864 104.589 53.864 104.588 53.864 104.587C53.864 104.586 53.864 104.585 53.864 104.584C53.864 104.583 53.864 104.582 53.864 104.581C53.864 104.58 53.864 104.579 53.864 104.578C53.864 104.577 53.864 104.576 53.864 104.575C53.864 104.574 53.864 104.573 53.864 104.572C53.864 104.571 53.864 104.57 53.864 104.569C53.864 104.568 53.864 104.567 53.864 104.566C53.864 104.565 53.864 104.564 53.864 104.563C53.864 104.562 53.864 104.561 53.864 104.56C53.864 104.559 53.864 104.558 53.864 104.557C53.864 104.556 53.864 104.555 53.864 104.554C53.864 104.553 53.864 104.552 53.864 104.551C53.864 104.55 53.864 104.549 53.864 104.548C53.864 104.547 53.864 104.546 53.864 104.545C53.864 104.544 53.864 104.543 53.864 104.542C53.864 104.541 53.864 104.54 53.864 104.539C53.864 104.538 53.864 104.537 53.864 104.536C53.864 104.535 53.864 104.534 53.864 104.533C53.864 104.532 53.864 104.531 53.864 104.53C53.864 104.529 53.864 104.528 53.864 104.527C53.864 104.526 53.864 104.525 53.864 104.524C53.864 104.523 53.864 104.522 53.864 104.521C53.864 104.52 53.864 104.519 53.864 104.518C53.864 104.517 53.864 104.516 53.864 104.515C53.864 104.514 53.864 104.513 53.864 104.512C53.864 104.511 53.864 104.51 53.864 104.509C53.864 104.508 53.864 104.507 53.864 104.506C53.864 104.505 53.864 104.504 53.864 104.503C53.864 104.502 53.864 104.501 53.864 104.5C53.864 104.499 53.864 104.498 53.864 104.497C53.864 104.496 53.864 104.495 53.864 104.494C53.864 104.493 53.864 104.492 53.864 104.491C53.864 104.49 53.864 104.489 53.864 104.488C53.864 104.487 53.864 104.486 53.864 104.485C53.864 104.484 53.864 104.483 53.864 104.482C53.864 104.481 53.864 104.48 53.864 104.479C53.864 104.478 53.864 104.477 53.864 104.476C53.864 104.475 53.864 104.474 53.864 104.473C53.864 104.472 53.864 104.471 53.864 104.47C53.864 104.469 53.864 104.468 53.864 104.467C53.864 104.466 53.864 104.465 53.864 104.464C53.864 104.463 53.864 104.462 53.864 104.461C53.864 104.46 53.864 104.459 53.864 104.458C53.864 104.457 53.864 104.456 53.864 104.455C53.864 104.454 53.864 104.453 53.864 104.452C53.864 104.451 53.864 104.45 53.864 104.449C53.864 104.448 53.864 104.447 53.864 104.446C53.864 104.445 53.864 104.444 53.864 104.443C53.864 104.442 53.864 104.441 53.864 104.44C53.864 104.439 53.864 104.438 53.864 104.437C53.864 104.436 53.864 104.435 53.864 104.434C53.864 104.433 53.864 104.432 53.864 104.431C53.864 104.43 53.864 104.429 53.864 104.428C53.864 104.427 53.864 104.426 53.864 104.425C53.864 104.424 53.864 104.423 53.864 104.422C53.864 104.421 53.864 104.42 53.864 104.419C53.864 104.418 53.864 104.417 53.864 104.416C53.864 104.415 53.864 104.414 53.864 104.413C53.864 104.412 53.864 104.411 53.864 104.41C53.864 104.409 53.864 104.408 53.864 104.407C53.864 104.406 53.864 104.405 53.864 104.404C53.864 104.403 53.864 104.402 53.864 104.401C53.864 104.4 53.864 104.399 53.864 104.398C53.864 104.397 53.864 104.396 53.864 104.395C53.864 104.394 53.864 104.393 53.864 104.392C53.864 104.391 53.864 104.39 53.864 104.389C53.864 104.388 53.864 104.387 53.864 104.386C53.864 104.385 53.864 104.384 53.864 104.383C53.864 104.382 53.864 104.381 53.864 104.38C53.864 104.379 53.864 104.378 53.864 104.377C53.864 104.376 53.864 104.375 53.864 104.374C53.864 104.373 53.864 104.372 53.864 104.371C53.864 104.37 53.864 104.369 53.864 104.368C53.864 104.367 53.864 104.366 53.864 104.365C53.864 104.364 53.864 104.363 53.864 104.362C53.864 104.361 53.864 104.36 53.864 104.359C53.864 104.358 53.864 104.357 53.864 104.356C53.864 104.355 53.864 104.354 53.864 104.353C53.864 104.352 53.864 104.351 53.864 104.35C53.864 104.349 53.864 104.348 53.864 104.347C53.864 104.346 53.864 104.345 53.864 104.344C53.864 104.343 53.864 104.342 53.864 104.341C53.864 104.34 53.864 104.339 53.864 104.338C53.864 104.337 53.864 104.336 53.864 104.335C53.864 104.334 53.864 104.333 53.864 104.332C53.864 104.331 53.864 104.33 53.864 104.329C53.864 104.328 53.864 104.327 53.864 104.326C53.864 104.325 53.864 104.324 53.864 104.323C53.864 104.322 53.864 104.321 53.864 104.32C53.864 104.319 53.864 104.318 53.864 104.317C53.864 104.316 53.864 104.315 53.864 104.314C53.864 104.313 53.864 104.312 53.864 104.311C53.864 104.31 53.864 104.309 53.864 104.308C53.864 104.307 53.864 104.306 53.864 104.305C53.864 104.304 53.864 104.303 53.864 104.302C53.864 104.301 53.864 104.3 53.864 104.299C53.864 104.298 53.864 104.297 53.864 104.296C53.864 104.295 53.864 104.294 53.864 104.293C53.864 104.292 53.864 104.291 53.864 104.29C53.864 104.289 53.864 104.288 53.864 104.287C53.864 104.286 53.864 104.285 53.864 104.284C53.864 104.283 53.864 104.282 53.864 104.281C53.864 104.28 53.864 104.279 53.864 104.278C53.864 104.277 53.864 104.276 53.864 104.275C53.864 104.274 53.864 104.273 53.864 104.272C53.864 104.271 53.864 104.27 53.864 104.269C53.864 104.268 53.864 104.267 53.864 104.266C53.864 104.265 53.864 104.264 53.864 104.263C53.864 104.262 53.864 104.261 53.864 104.26C53.864 104.259 53.864 104.258 53.864 104.257C53.864 104.256 53.864 104.255 53.864 104.254C53.864 104.253 53.864 104.252 53.864 104.251C53.864 104.25 53.864 104.249 53.864 104.248C53.864 104.247 53.864 104.246 53.864 104.245C53.864 104.244 53.864 104.243 53.864 104.242C53.864 104.241 53.864 104.24 53.864 104.239C53.864 104.238 53.864 104.237 53.864 104.236C53.864 104.235 53.864 104.234 53.864 104.233C53.864 104.232 53.864 104.231 53.864 104.23C53.864 104.229 53.864 104.228 53.864 104.227C53.864 104.226 53.864 104.225 53.864 104.224C53.864 104.223 53.864 104.222 53.864 104.221C53.864 104.22 53.864 104.219 53.864 104.218C53.864 104.217 53.864 104.216 53.864 104.215C53.864 104.214 53.864 104.213 53.864 104.212C53.864 104.211 53.864 104.21 53.864 104.209C53.864 104.208 53.864 104.207 53.864 104.206C53.864 104.205 53.864 104.204 53.864 104.203C53.864 104.202 53.864 104.201 53.864 104.2C53.864 104.199 53.864 104.198 53.864 104.197C53.864 104.196 53.864 104.195 53.864 104.194C53.864 104.193 53.864 104.192 53.864 104.191C53.864 104.19 53.864 104.189 53.864 104.188C53.864 104.187 53.864 104.186 53.864 104.185C53.864 104.184 53.864 104.183 53.864 104.182C53.864 104.181 53.864 104.18 53.864 104.179C53.864 104.178 53.864 104.177 53.864 104.176C53.864 104.175 53.864 104.174 53.864 104.173C53.864 104.172 53.864 104.171 53.864 104.17C53.864 104.169 53.864 104.168 53.864 104.167C53.864 104.166 53.864 104.165 53.864 104.164C53.864 104.163 53.864 104.162 53.864 104.161C53.864 104.16 53.864 104.159 53.864 104.158C53.864 104.157 53.864 104.156 53.864 104.155C53.864 104.154 53.864 104.153 53.864 104.152C53.864 104.151 53.864 104.15 53.864 104.149C53.864 104.148 53.864 104.147 53.864 104.146C53.864 104.145 53.864 104.144 53.864 104.143C53.864 104.142 53.864 104.141 53.864 104.14C53.864 104.139 53.864 104.138 53.864 104.137C53.864 104.136 53.864 104.135 53.864 104.134C53.864 104.133 53.864 104.132 53.864 104.131C53.864 104.13 53.864 104.129 53.864 104.128C53.864 104.127 53.864 104.126 53.864 104.125C53.864 104.124 53.864 104.123 53.864 104.122C53.864 104.121 53.864 104.12 53.864 104.119C53.864 104.118 53.864 104.117 53.864 104.116C53.864 104.115 53.864 104.114 53.864 104.113C53.864 104.112 53.864 104.111 53.864 104.11C53.864 104.109 53.864 104.108 53.864 104.107C53.864 104.106 53.864 104.105 53.864 104.104C53.864 104.103 53.864 104.102 53.864 104.101C53.864 104.1 53.864 104.099 53.864 104.098C53.864 104.097 53.864 104.096 53.864 104.095C53.864 104.094 53.864 104.093 53.864 104.092C53.864 104.091 53.864 104.09 53.864 104.089C53.864 104.088 53.864 104.087 53.864 104.086C53.864 104.085 53.864 104.084 53.864 104.083C53.864 104.082 53.864 104.081 53.864 104.08C53.864 104.079 53.864 104.078 53.864 104.077C53.864 104.076 53.864 104.075 53.864 104.074C53.864 104.073 53.864 104.072 53.864 104.071C53.864 104.07 53.864 104.069 53.864 104.068C53.864 104.067 53.864 104.066 53.864 104.065C53.864 104.064 53.864 104.063 53.864 104.062C53.864 104.061 53.864 104.06 53.864 104.059C53.864 104.058 53.864 104.057 53.864 104.056C53.864 104.055 53.864 104.054 53.864 104.053C53.864 104.052 53.864 104.051 53.864 104.05C53.864 104.049 53.864 104.048 53.864 104.047C53.864 104.046 53.864 104.045 53.864 104.044C53.864 104.043 53.864 104.042 53.864 104.041C53.864 104.04 53.864 104.039 53.864 104.038C53.864 104.037 53.864 104.036 53.864 104.035C53.864 104.034 53.864 104.033 53.864 104.032C53.864 104.031 53.864 104.03 53.864 104.029C53.864 104.028 53.864 104.027 53.864 104.026C53.864 104.025 53.864 104.024 53.864 104.023C53.864 104.022 53.864 104.021 53.864 104.02C53.864 104.019 53.864 104.018 53.864 104.017C53.864 104.016 53.864 104.015 53.864 104.014C53.864 104.013 53.864 104.012 53.864 104.011C53.864 104.01 53.864 104.009 53.864 104.008C53.864 104.007 53.864 104.006 53.864 104.005C53.864 104.004 53.864 104.003 53.864 104.002C53.864 104.001 53.864 104 53.864 103.999C53.864 103.998 53.864 103.997 53.864 103.996C53.864 103.995 53.864 103.994 53.864 103.993C53.864 103.992 53.864 103.991 53.864 103.99C53.864 103.989 53.864 103.988 53.864 103.987C53.864 103.986 53.864 103.985 53.864 103.984C53.864 103.983 53.864 103.982 53.864 103.981C53.864 103.98 53.864 103.979 53.864 103.978C53.864 103.977 53.864 103.976 53.864 103.975C53.864 103.974 53.864 103.973 53.864 103.972C53.864 103.971 53.864 103.97 53.864 103.969C53.864 103.968 53.864 103.967 53.864 103.966C53.864 103.965 53.864 103.964 53.864 103.963C53.864 103.962 53.864 103.961 53.864 103.96C53.864 103.959 53.864 103.958 53.864 103.957C53.864 103.956 53.864 103.955 53.864 103.954C53.864 103.953 53.864 103.952 53.864 103.951C53.864 103.95 53.864 103.949 53.864 103.948C53.864 103.947 53.864 103.946 53.864 103.945C53.864 103.944 53.864 103.943 53.864 103.942C53.864 103.941 53.864 103.94 53.864 103.939C53.864 103.938 53.864 103.937 53.864 103.936C53.864 103.935 53.864 103.934 53.864 103.933C53.864 103.932 53.864 103.931 53.864 103.93C53.864 103.929 53.864 103.928 53.864 103.927C53.864 103.926 53.864 103.925 53.864 103.924C53.864 103.923 53.864 103.922 53.864 103.921C53.864 103.92 53.864 103.919 53.864 103.918C53.864 103.917 53.864 103.916 53.864 103.915C53.864 103.914 53.864 103.913 53.864 103.912C53.864 103.911 53.864 103.91 53.864 103.909C53.864 103.908 53.864 103.907 53.864 103.906C53.864 103.905 53.864 103.904 53.864 103.903C53.864 103.902 53.864 103.901 53.864 103.9C53.864 103.899 53.864 103.898 53.864 103.897C53.864 103.896 53.864 103.895 53.864 103.894C53.864 103.893 53.864 103.892 53.864 103.891C53.864 103.89 53.864 103.889 53.864 103.888C53.864 103.887 53.864 103.886 53.864 103.885C53.864 103.884 53.864 103.883 53.864 103.882C53.864 103.881 53.864 103.88 53.864 103.879C53.864 103.878 53.864 103.877 53.864 103.876C53.864 103.875 53.864 103.874 53.864 103.873C53.864 103.872 53.864 103.871 53.864 103.87C53.864 103.869 53.864 103.868 53.864 103.867C53.864 103.866 53.864 103.865 53.864 103.864C53.864 103.863 53.864 103.862 53.864 103.861C53.864 103.86 53.864 103.859 53.864 103.858C53.864 103.857 53.864 103.856 53.864 103.855C53.864 103.854 53.864 103.853 53.864 103.852C53.864 103.851 53.864 103.85 53.864 103.849C53.864 103.848 53.864 103.847 53.864 103.846C53.864 103.845 53.864 103.844 53.864 103.843C53.864 103.842 53.864 103.841 53.864 103.84C53.864 103.839 53.864 103.838 53.864 103.837C53.864 103.836 53.864 103.835 53.864 103.834C53.864 103.833 53.864 103.832 53.864 103.831C53.864 103.83 53.864 103.829 53.864 103.828C53.864 103.827 53.864 103.826 53.864 103.825C53.864 103.824 53.864 103.823 53.864 103.822C53.864 103.821 53.864 103.82 53.864 103.819C53.864 103.818 53.864 103.817 53.864 103.816C53.864 103.815 53.864 103.814 53.864 103.813C53.864 103.812 53.864 103.811 53.864 103.81C53.864 103.809 53.864 103.808 53.864 103.807C53.864 103.806 53.864 103.805 53.864 103.804C53.864 103.803 53.864 103.802 53.864 103.801C53.864 103.8 53.864 103.799 53.864 103.798C53.864 103.797 53.864 103.796 53.864 103.795C53.864 103.794 53.864 103.793 53.864 103.792C53.864 103.791 53.864 103.79 53.864 103.789C53.864 103.788 53.864 103.787 53.864 103.786C53.864 103.785 53.864 103.784 53.864 103.783C53.864 103.782 53.864 103.781 53.864 103.78C53.864 103.779 53.864 103.778 53.864 103.777C53.864 103.776 53.864 103.775 53.864 103.774C53.864 103.773 53.864 103.772 53.864 103.771C53.864 103.77 53.864 103.769 53.864 103.768C53.864 103.767 53.864 103.766 53.864 103.765C53.864 103.764 53.864 103.763 53.864 103.762C53.864 103.761 53.864 103.76 53.864 103.759C53.864 103.758 53.864 103.757 53.864 103.756C53.864 103.755 53.864 103.754 53.864 103.753C53.864 103.752 53.864 103.751 53.864 103.75C53.864 103.749 53.864 103.748 53.864 103.747C53.864 103.746 53.864 103.745 53.864 103.744C53.864 103.743 53.864 103.742 53.864 103.741C53.864 103.74 53.864 103.739 53.864 103.738C53.864 103.737 53.864 103.736 53.864 103.735C53.864 103.734 53.864 103.733 53.864 103.732C53.864 103.731 53.864 103.73 53.864 103.729C53.864 103.728 53.864 103.727 53.864 103.726C53.864 103.725 53.864 103.724 53.864 103.723C53.864 103.722 53.864 103.721 53.864 103.72C53.864 103.719 53.864 103.718 53.864 103.717C53.864 103.716 53.864 103.715 53.864 103.714C53.864 103.713 53.864 103.712 53.864 103.711C53.864 103.71 53.864 103.709 53.864 103.708C53.864 103.707 53.864 103.706 53.864 103.705C53.864 103.704 53.864 103.703 53.864 103.702C53.864 103.701 53.864 103.7 53.864 103.699C53.864 103.698 53.864 103.697 53.864 103.696C53.864 103.695 53.864 103.694 53.864 103.693C53.864 103.692 53.864 103.691 53.864 103.69C53.864 103.689 53.864 103.688 53.864 103.687C53.864 103.686 53.864 103.685 53.864 103.684C53.864 103.683 53.864 103.682 53.864 103.681C53.864 103.68 53.864 103.679 53.864 103.678C53.864 103.677 53.864 103.676 53.864 103.675C53.864 103.674 53.864 103.673 53.864 103.672C53.864 103.671 53.864 103.67 53.864 103.669C53.864 103.668 53.864 103.667 53.864 103.666C53.864 103.665 53.864 103.664 53.864 103.663C53.864 103.662 53.864 103.661 53.864 103.66C53.864 103.659 53.864 103.658 53.864 103.657C53.864 103.656 53.864 103.655 53.864 103.654C53.864 103.653 53.864 103.652 53.864 103.651C53.864 103.65 53.864 103.649 53.864 103.648C53.864 103.647 53.864 103.646 53.864 103.645C53.864 103.644 53.864 103.643 53.864 103.642C53.864 103.641 53.864 103.64 53.864 103.639C53.864 103.638 53.864 103.637 53.864 103.636C53.864 103.635 53.864 103.634 53.864 103.633C53.864 103.632 53.864 103.631 53.864 103.63C53.864 103.629 53.864 103.628 53.864 103.627C53.864 103.626 53.864 103.625 53.864 103.624C53.864 103.623 53.864 103.622 53.864 103.621C53.864 103.62 53.864 103.619 53.864 103.618C53.864 103.617 53.864 103.616 53.864 103.615C53.864 103.614 53.864 103.613 53.864 103.612C53.864 103.611 53.864 103.61 53.864 103.609C53.864 103.608 53.864 103.607 53.864 103.606C53.864 103.605 53.864 103.604 53.864 103.603C53.864 103.602 53.864 103.601 53.864 103.6C53.864 103.599 53.864 103.598 53.864 103.597C53.864 103.596 53.864 103.595 53.864 103.594C53.864 103.593 53.864 103.592 53.864 103.591C53.864 103.59 53.864 103.589 53.864 103.588C53.864 103.587 53.864 103.586 53.864 103.585C53.864 103.584 53.864 103.583 53.864 103.582C53.864 103.581 53.864 103.58 53.864 103.579C53.864 103.578 53.864 103.577 53.864 103.576C53.864 103.575 53.864 103.574 53.864 103.573C53.864 103.572 53.864 103.571 53.864 103.57C53.864 103.569 53.864 103.568 53.864 103.567C53.864 103.566 53.864 103.565 53.864 103.564C53.864 103.563 53.864 103.562 53.864 103.561C53.864 103.56 53.864 103.559 53.864 103.558C53.864 103.557 53.864 103.556 53.864 103.555C53.864 103.554 53.864 103.553 53.864 103.552C53.864 103.551 53.864 103.55 53.864 103.549C53.864 103.548 53.864 103.547 53.864 103.546C53.864 103.545 53.864 103.544 53.864 103.543C53.864 103.542 53.864 103.541 53.864 103.54C53.864 103.539 53.864 103.538 53.864 103.537C53.864 103.536 53.864 103.535 53.864 103.534C53.864 103.533 53.864 103.532 53.864 103.531C53.864 103.53 53.864 103.529 53.864 103.528C53.864 103.527 53.864 103.526 53.864 103.525C53.864 103.524 53.864 103.523 53.864 103.522C53.864 103.521 53.864 103.52 53.864 103.519C53.864 103.518 53.864 103.517 53.864 103.516C53.864 103.515 53.864 103.514 53.864 103.513C53.864 103.512 53.864 103.511 53.864 103.51C53.864 103.509 53.864 103.508 53.864 103.507C53.864 103.506 53.864 103.505 53.864 103.504C53.864 103.503 53.864 103.502 53.864 103.501C53.864 103.5 53.864 103.499 53.864 103.498C53.864 103.497 53.864 103.496 53.864 103.495C53.864 103.494 53.864 103.493 53.864 103.492C53.864 103.491 53.864 103.49 53.864 103.489C53.864 103.488 53.864 103.487 53.864 103.486C53.864 103.485 53.864 103.484 53.864 103.483C53.864 103.482 53.864 103.481 53.864 103.48C53.864 103.479 53.864 103.478 53.864 103.477C53.864 103.476 53.864 103.475 53.864 103.474C53.864 103.473 53.864 103.472 53.864 103.471C53.864 103.47 53.864 103.469 53.864 103.468C53.864 103.467 53.864 103.466 53.864 103.465C53.864 103.464 53.864 103.463 53.864 103.462C53.864 103.461 53.864 103.46 53.864 103.459C53.864 103.458 53.864 103.457 53.864 103.456H51.864C51.864 103.457 51.864 103.458 51.864 103.459C51.864 103.46 51.864 103.461 51.864 103.462C51.864 103.463 51.864 103.464 51.864 103.465C51.864 103.466 51.864 103.467 51.864 103.468C51.864 103.469 51.864 103.47 51.864 103.471C51.864 103.472 51.864 103.473 51.864 103.474C51.864 103.475 51.864 103.476 51.864 103.477C51.864 103.478 51.864 103.479 51.864 103.48C51.864 103.481 51.864 103.482 51.864 103.483C51.864 103.484 51.864 103.485 51.864 103.486C51.864 103.487 51.864 103.488 51.864 103.489C51.864 103.49 51.864 103.491 51.864 103.492C51.864 103.493 51.864 103.494 51.864 103.495C51.864 103.496 51.864 103.497 51.864 103.498C51.864 103.499 51.864 103.5 51.864 103.501C51.864 103.502 51.864 103.503 51.864 103.504C51.864 103.505 51.864 103.506 51.864 103.507C51.864 103.508 51.864 103.509 51.864 103.51C51.864 103.511 51.864 103.512 51.864 103.513C51.864 103.514 51.864 103.515 51.864 103.516C51.864 103.517 51.864 103.518 51.864 103.519C51.864 103.52 51.864 103.521 51.864 103.522C51.864 103.523 51.864 103.524 51.864 103.525C51.864 103.526 51.864 103.527 51.864 103.528C51.864 103.529 51.864 103.53 51.864 103.531C51.864 103.532 51.864 103.533 51.864 103.534C51.864 103.535 51.864 103.536 51.864 103.537C51.864 103.538 51.864 103.539 51.864 103.54C51.864 103.541 51.864 103.542 51.864 103.543C51.864 103.544 51.864 103.545 51.864 103.546C51.864 103.547 51.864 103.548 51.864 103.549C51.864 103.55 51.864 103.551 51.864 103.552C51.864 103.553 51.864 103.554 51.864 103.555C51.864 103.556 51.864 103.557 51.864 103.558C51.864 103.559 51.864 103.56 51.864 103.561C51.864 103.562 51.864 103.563 51.864 103.564C51.864 103.565 51.864 103.566 51.864 103.567C51.864 103.568 51.864 103.569 51.864 103.57C51.864 103.571 51.864 103.572 51.864 103.573C51.864 103.574 51.864 103.575 51.864 103.576C51.864 103.577 51.864 103.578 51.864 103.579C51.864 103.58 51.864 103.581 51.864 103.582C51.864 103.583 51.864 103.584 51.864 103.585C51.864 103.586 51.864 103.587 51.864 103.588C51.864 103.589 51.864 103.59 51.864 103.591C51.864 103.592 51.864 103.593 51.864 103.594C51.864 103.595 51.864 103.596 51.864 103.597C51.864 103.598 51.864 103.599 51.864 103.6C51.864 103.601 51.864 103.602 51.864 103.603C51.864 103.604 51.864 103.605 51.864 103.606C51.864 103.607 51.864 103.608 51.864 103.609C51.864 103.61 51.864 103.611 51.864 103.612C51.864 103.613 51.864 103.614 51.864 103.615C51.864 103.616 51.864 103.617 51.864 103.618C51.864 103.619 51.864 103.62 51.864 103.621C51.864 103.622 51.864 103.623 51.864 103.624C51.864 103.625 51.864 103.626 51.864 103.627C51.864 103.628 51.864 103.629 51.864 103.63C51.864 103.631 51.864 103.632 51.864 103.633C51.864 103.634 51.864 103.635 51.864 103.636C51.864 103.637 51.864 103.638 51.864 103.639C51.864 103.64 51.864 103.641 51.864 103.642C51.864 103.643 51.864 103.644 51.864 103.645C51.864 103.646 51.864 103.647 51.864 103.648C51.864 103.649 51.864 103.65 51.864 103.651C51.864 103.652 51.864 103.653 51.864 103.654C51.864 103.655 51.864 103.656 51.864 103.657C51.864 103.658 51.864 103.659 51.864 103.66C51.864 103.661 51.864 103.662 51.864 103.663C51.864 103.664 51.864 103.665 51.864 103.666C51.864 103.667 51.864 103.668 51.864 103.669C51.864 103.67 51.864 103.671 51.864 103.672C51.864 103.673 51.864 103.674 51.864 103.675C51.864 103.676 51.864 103.677 51.864 103.678C51.864 103.679 51.864 103.68 51.864 103.681C51.864 103.682 51.864 103.683 51.864 103.684C51.864 103.685 51.864 103.686 51.864 103.687C51.864 103.688 51.864 103.689 51.864 103.69C51.864 103.691 51.864 103.692 51.864 103.693C51.864 103.694 51.864 103.695 51.864 103.696C51.864 103.697 51.864 103.698 51.864 103.699C51.864 103.7 51.864 103.701 51.864 103.702C51.864 103.703 51.864 103.704 51.864 103.705C51.864 103.706 51.864 103.707 51.864 103.708C51.864 103.709 51.864 103.71 51.864 103.711C51.864 103.712 51.864 103.713 51.864 103.714C51.864 103.715 51.864 103.716 51.864 103.717C51.864 103.718 51.864 103.719 51.864 103.72C51.864 103.721 51.864 103.722 51.864 103.723C51.864 103.724 51.864 103.725 51.864 103.726C51.864 103.727 51.864 103.728 51.864 103.729C51.864 103.73 51.864 103.731 51.864 103.732C51.864 103.733 51.864 103.734 51.864 103.735C51.864 103.736 51.864 103.737 51.864 103.738C51.864 103.739 51.864 103.74 51.864 103.741C51.864 103.742 51.864 103.743 51.864 103.744C51.864 103.745 51.864 103.746 51.864 103.747C51.864 103.748 51.864 103.749 51.864 103.75C51.864 103.751 51.864 103.752 51.864 103.753C51.864 103.754 51.864 103.755 51.864 103.756C51.864 103.757 51.864 103.758 51.864 103.759C51.864 103.76 51.864 103.761 51.864 103.762C51.864 103.763 51.864 103.764 51.864 103.765C51.864 103.766 51.864 103.767 51.864 103.768C51.864 103.769 51.864 103.77 51.864 103.771C51.864 103.772 51.864 103.773 51.864 103.774C51.864 103.775 51.864 103.776 51.864 103.777C51.864 103.778 51.864 103.779 51.864 103.78C51.864 103.781 51.864 103.782 51.864 103.783C51.864 103.784 51.864 103.785 51.864 103.786C51.864 103.787 51.864 103.788 51.864 103.789C51.864 103.79 51.864 103.791 51.864 103.792C51.864 103.793 51.864 103.794 51.864 103.795C51.864 103.796 51.864 103.797 51.864 103.798C51.864 103.799 51.864 103.8 51.864 103.801C51.864 103.802 51.864 103.803 51.864 103.804C51.864 103.805 51.864 103.806 51.864 103.807C51.864 103.808 51.864 103.809 51.864 103.81C51.864 103.811 51.864 103.812 51.864 103.813C51.864 103.814 51.864 103.815 51.864 103.816C51.864 103.817 51.864 103.818 51.864 103.819C51.864 103.82 51.864 103.821 51.864 103.822C51.864 103.823 51.864 103.824 51.864 103.825C51.864 103.826 51.864 103.827 51.864 103.828C51.864 103.829 51.864 103.83 51.864 103.831C51.864 103.832 51.864 103.833 51.864 103.834C51.864 103.835 51.864 103.836 51.864 103.837C51.864 103.838 51.864 103.839 51.864 103.84C51.864 103.841 51.864 103.842 51.864 103.843C51.864 103.844 51.864 103.845 51.864 103.846C51.864 103.847 51.864 103.848 51.864 103.849C51.864 103.85 51.864 103.851 51.864 103.852C51.864 103.853 51.864 103.854 51.864 103.855C51.864 103.856 51.864 103.857 51.864 103.858C51.864 103.859 51.864 103.86 51.864 103.861C51.864 103.862 51.864 103.863 51.864 103.864C51.864 103.865 51.864 103.866 51.864 103.867C51.864 103.868 51.864 103.869 51.864 103.87C51.864 103.871 51.864 103.872 51.864 103.873C51.864 103.874 51.864 103.875 51.864 103.876C51.864 103.877 51.864 103.878 51.864 103.879C51.864 103.88 51.864 103.881 51.864 103.882C51.864 103.883 51.864 103.884 51.864 103.885C51.864 103.886 51.864 103.887 51.864 103.888C51.864 103.889 51.864 103.89 51.864 103.891C51.864 103.892 51.864 103.893 51.864 103.894C51.864 103.895 51.864 103.896 51.864 103.897C51.864 103.898 51.864 103.899 51.864 103.9C51.864 103.901 51.864 103.902 51.864 103.903C51.864 103.904 51.864 103.905 51.864 103.906C51.864 103.907 51.864 103.908 51.864 103.909C51.864 103.91 51.864 103.911 51.864 103.912C51.864 103.913 51.864 103.914 51.864 103.915C51.864 103.916 51.864 103.917 51.864 103.918C51.864 103.919 51.864 103.92 51.864 103.921C51.864 103.922 51.864 103.923 51.864 103.924C51.864 103.925 51.864 103.926 51.864 103.927C51.864 103.928 51.864 103.929 51.864 103.93C51.864 103.931 51.864 103.932 51.864 103.933C51.864 103.934 51.864 103.935 51.864 103.936C51.864 103.937 51.864 103.938 51.864 103.939C51.864 103.94 51.864 103.941 51.864 103.942C51.864 103.943 51.864 103.944 51.864 103.945C51.864 103.946 51.864 103.947 51.864 103.948C51.864 103.949 51.864 103.95 51.864 103.951C51.864 103.952 51.864 103.953 51.864 103.954C51.864 103.955 51.864 103.956 51.864 103.957C51.864 103.958 51.864 103.959 51.864 103.96C51.864 103.961 51.864 103.962 51.864 103.963C51.864 103.964 51.864 103.965 51.864 103.966C51.864 103.967 51.864 103.968 51.864 103.969C51.864 103.97 51.864 103.971 51.864 103.972C51.864 103.973 51.864 103.974 51.864 103.975C51.864 103.976 51.864 103.977 51.864 103.978C51.864 103.979 51.864 103.98 51.864 103.981C51.864 103.982 51.864 103.983 51.864 103.984C51.864 103.985 51.864 103.986 51.864 103.987C51.864 103.988 51.864 103.989 51.864 103.99C51.864 103.991 51.864 103.992 51.864 103.993C51.864 103.994 51.864 103.995 51.864 103.996C51.864 103.997 51.864 103.998 51.864 103.999C51.864 104 51.864 104.001 51.864 104.002C51.864 104.003 51.864 104.004 51.864 104.005C51.864 104.006 51.864 104.007 51.864 104.008C51.864 104.009 51.864 104.01 51.864 104.011C51.864 104.012 51.864 104.013 51.864 104.014C51.864 104.015 51.864 104.016 51.864 104.017C51.864 104.018 51.864 104.019 51.864 104.02C51.864 104.021 51.864 104.022 51.864 104.023C51.864 104.024 51.864 104.025 51.864 104.026C51.864 104.027 51.864 104.028 51.864 104.029C51.864 104.03 51.864 104.031 51.864 104.032C51.864 104.033 51.864 104.034 51.864 104.035C51.864 104.036 51.864 104.037 51.864 104.038C51.864 104.039 51.864 104.04 51.864 104.041C51.864 104.042 51.864 104.043 51.864 104.044C51.864 104.045 51.864 104.046 51.864 104.047C51.864 104.048 51.864 104.049 51.864 104.05C51.864 104.051 51.864 104.052 51.864 104.053C51.864 104.054 51.864 104.055 51.864 104.056C51.864 104.057 51.864 104.058 51.864 104.059C51.864 104.06 51.864 104.061 51.864 104.062C51.864 104.063 51.864 104.064 51.864 104.065C51.864 104.066 51.864 104.067 51.864 104.068C51.864 104.069 51.864 104.07 51.864 104.071C51.864 104.072 51.864 104.073 51.864 104.074C51.864 104.075 51.864 104.076 51.864 104.077C51.864 104.078 51.864 104.079 51.864 104.08C51.864 104.081 51.864 104.082 51.864 104.083C51.864 104.084 51.864 104.085 51.864 104.086C51.864 104.087 51.864 104.088 51.864 104.089C51.864 104.09 51.864 104.091 51.864 104.092C51.864 104.093 51.864 104.094 51.864 104.095C51.864 104.096 51.864 104.097 51.864 104.098C51.864 104.099 51.864 104.1 51.864 104.101C51.864 104.102 51.864 104.103 51.864 104.104C51.864 104.105 51.864 104.106 51.864 104.107C51.864 104.108 51.864 104.109 51.864 104.11C51.864 104.111 51.864 104.112 51.864 104.113C51.864 104.114 51.864 104.115 51.864 104.116C51.864 104.117 51.864 104.118 51.864 104.119C51.864 104.12 51.864 104.121 51.864 104.122C51.864 104.123 51.864 104.124 51.864 104.125C51.864 104.126 51.864 104.127 51.864 104.128C51.864 104.129 51.864 104.13 51.864 104.131C51.864 104.132 51.864 104.133 51.864 104.134C51.864 104.135 51.864 104.136 51.864 104.137C51.864 104.138 51.864 104.139 51.864 104.14C51.864 104.141 51.864 104.142 51.864 104.143C51.864 104.144 51.864 104.145 51.864 104.146C51.864 104.147 51.864 104.148 51.864 104.149C51.864 104.15 51.864 104.151 51.864 104.152C51.864 104.153 51.864 104.154 51.864 104.155C51.864 104.156 51.864 104.157 51.864 104.158C51.864 104.159 51.864 104.16 51.864 104.161C51.864 104.162 51.864 104.163 51.864 104.164C51.864 104.165 51.864 104.166 51.864 104.167C51.864 104.168 51.864 104.169 51.864 104.17C51.864 104.171 51.864 104.172 51.864 104.173C51.864 104.174 51.864 104.175 51.864 104.176C51.864 104.177 51.864 104.178 51.864 104.179C51.864 104.18 51.864 104.181 51.864 104.182C51.864 104.183 51.864 104.184 51.864 104.185C51.864 104.186 51.864 104.187 51.864 104.188C51.864 104.189 51.864 104.19 51.864 104.191C51.864 104.192 51.864 104.193 51.864 104.194C51.864 104.195 51.864 104.196 51.864 104.197C51.864 104.198 51.864 104.199 51.864 104.2C51.864 104.201 51.864 104.202 51.864 104.203C51.864 104.204 51.864 104.205 51.864 104.206C51.864 104.207 51.864 104.208 51.864 104.209C51.864 104.21 51.864 104.211 51.864 104.212C51.864 104.213 51.864 104.214 51.864 104.215C51.864 104.216 51.864 104.217 51.864 104.218C51.864 104.219 51.864 104.22 51.864 104.221C51.864 104.222 51.864 104.223 51.864 104.224C51.864 104.225 51.864 104.226 51.864 104.227C51.864 104.228 51.864 104.229 51.864 104.23C51.864 104.231 51.864 104.232 51.864 104.233C51.864 104.234 51.864 104.235 51.864 104.236C51.864 104.237 51.864 104.238 51.864 104.239C51.864 104.24 51.864 104.241 51.864 104.242C51.864 104.243 51.864 104.244 51.864 104.245C51.864 104.246 51.864 104.247 51.864 104.248C51.864 104.249 51.864 104.25 51.864 104.251C51.864 104.252 51.864 104.253 51.864 104.254C51.864 104.255 51.864 104.256 51.864 104.257C51.864 104.258 51.864 104.259 51.864 104.26C51.864 104.261 51.864 104.262 51.864 104.263C51.864 104.264 51.864 104.265 51.864 104.266C51.864 104.267 51.864 104.268 51.864 104.269C51.864 104.27 51.864 104.271 51.864 104.272C51.864 104.273 51.864 104.274 51.864 104.275C51.864 104.276 51.864 104.277 51.864 104.278C51.864 104.279 51.864 104.28 51.864 104.281C51.864 104.282 51.864 104.283 51.864 104.284C51.864 104.285 51.864 104.286 51.864 104.287C51.864 104.288 51.864 104.289 51.864 104.29C51.864 104.291 51.864 104.292 51.864 104.293C51.864 104.294 51.864 104.295 51.864 104.296C51.864 104.297 51.864 104.298 51.864 104.299C51.864 104.3 51.864 104.301 51.864 104.302C51.864 104.303 51.864 104.304 51.864 104.305C51.864 104.306 51.864 104.307 51.864 104.308C51.864 104.309 51.864 104.31 51.864 104.311C51.864 104.312 51.864 104.313 51.864 104.314C51.864 104.315 51.864 104.316 51.864 104.317C51.864 104.318 51.864 104.319 51.864 104.32C51.864 104.321 51.864 104.322 51.864 104.323C51.864 104.324 51.864 104.325 51.864 104.326C51.864 104.327 51.864 104.328 51.864 104.329C51.864 104.33 51.864 104.331 51.864 104.332C51.864 104.333 51.864 104.334 51.864 104.335C51.864 104.336 51.864 104.337 51.864 104.338C51.864 104.339 51.864 104.34 51.864 104.341C51.864 104.342 51.864 104.343 51.864 104.344C51.864 104.345 51.864 104.346 51.864 104.347C51.864 104.348 51.864 104.349 51.864 104.35C51.864 104.351 51.864 104.352 51.864 104.353C51.864 104.354 51.864 104.355 51.864 104.356C51.864 104.357 51.864 104.358 51.864 104.359C51.864 104.36 51.864 104.361 51.864 104.362C51.864 104.363 51.864 104.364 51.864 104.365C51.864 104.366 51.864 104.367 51.864 104.368C51.864 104.369 51.864 104.37 51.864 104.371C51.864 104.372 51.864 104.373 51.864 104.374C51.864 104.375 51.864 104.376 51.864 104.377C51.864 104.378 51.864 104.379 51.864 104.38C51.864 104.381 51.864 104.382 51.864 104.383C51.864 104.384 51.864 104.385 51.864 104.386C51.864 104.387 51.864 104.388 51.864 104.389C51.864 104.39 51.864 104.391 51.864 104.392C51.864 104.393 51.864 104.394 51.864 104.395C51.864 104.396 51.864 104.397 51.864 104.398C51.864 104.399 51.864 104.4 51.864 104.401C51.864 104.402 51.864 104.403 51.864 104.404C51.864 104.405 51.864 104.406 51.864 104.407C51.864 104.408 51.864 104.409 51.864 104.41C51.864 104.411 51.864 104.412 51.864 104.413C51.864 104.414 51.864 104.415 51.864 104.416C51.864 104.417 51.864 104.418 51.864 104.419C51.864 104.42 51.864 104.421 51.864 104.422C51.864 104.423 51.864 104.424 51.864 104.425C51.864 104.426 51.864 104.427 51.864 104.428C51.864 104.429 51.864 104.43 51.864 104.431C51.864 104.432 51.864 104.433 51.864 104.434C51.864 104.435 51.864 104.436 51.864 104.437C51.864 104.438 51.864 104.439 51.864 104.44C51.864 104.441 51.864 104.442 51.864 104.443C51.864 104.444 51.864 104.445 51.864 104.446C51.864 104.447 51.864 104.448 51.864 104.449C51.864 104.45 51.864 104.451 51.864 104.452C51.864 104.453 51.864 104.454 51.864 104.455C51.864 104.456 51.864 104.457 51.864 104.458C51.864 104.459 51.864 104.46 51.864 104.461C51.864 104.462 51.864 104.463 51.864 104.464C51.864 104.465 51.864 104.466 51.864 104.467C51.864 104.468 51.864 104.469 51.864 104.47C51.864 104.471 51.864 104.472 51.864 104.473C51.864 104.474 51.864 104.475 51.864 104.476C51.864 104.477 51.864 104.478 51.864 104.479C51.864 104.48 51.864 104.481 51.864 104.482C51.864 104.483 51.864 104.484 51.864 104.485C51.864 104.486 51.864 104.487 51.864 104.488C51.864 104.489 51.864 104.49 51.864 104.491C51.864 104.492 51.864 104.493 51.864 104.494C51.864 104.495 51.864 104.496 51.864 104.497C51.864 104.498 51.864 104.499 51.864 104.5C51.864 104.501 51.864 104.502 51.864 104.503C51.864 104.504 51.864 104.505 51.864 104.506C51.864 104.507 51.864 104.508 51.864 104.509C51.864 104.51 51.864 104.511 51.864 104.512C51.864 104.513 51.864 104.514 51.864 104.515C51.864 104.516 51.864 104.517 51.864 104.518C51.864 104.519 51.864 104.52 51.864 104.521C51.864 104.522 51.864 104.523 51.864 104.524C51.864 104.525 51.864 104.526 51.864 104.527C51.864 104.528 51.864 104.529 51.864 104.53C51.864 104.531 51.864 104.532 51.864 104.533C51.864 104.534 51.864 104.535 51.864 104.536C51.864 104.537 51.864 104.538 51.864 104.539C51.864 104.54 51.864 104.541 51.864 104.542C51.864 104.543 51.864 104.544 51.864 104.545C51.864 104.546 51.864 104.547 51.864 104.548C51.864 104.549 51.864 104.55 51.864 104.551C51.864 104.552 51.864 104.553 51.864 104.554C51.864 104.555 51.864 104.556 51.864 104.557C51.864 104.558 51.864 104.559 51.864 104.56C51.864 104.561 51.864 104.562 51.864 104.563C51.864 104.564 51.864 104.565 51.864 104.566C51.864 104.567 51.864 104.568 51.864 104.569C51.864 104.57 51.864 104.571 51.864 104.572C51.864 104.573 51.864 104.574 51.864 104.575C51.864 104.576 51.864 104.577 51.864 104.578C51.864 104.579 51.864 104.58 51.864 104.581C51.864 104.582 51.864 104.583 51.864 104.584C51.864 104.585 51.864 104.586 51.864 104.587C51.864 104.588 51.864 104.589 51.864 104.59C51.864 104.591 51.864 104.592 51.864 104.593C51.864 104.594 51.864 104.595 51.864 104.596C51.864 104.597 51.864 104.598 51.864 104.599C51.864 104.6 51.864 104.601 51.864 104.602C51.864 104.603 51.864 104.604 51.864 104.605C51.864 104.606 51.864 104.607 51.864 104.608C51.864 104.609 51.864 104.61 51.864 104.611C51.864 104.612 51.864 104.613 51.864 104.614C51.864 104.615 51.864 104.616 51.864 104.617C51.864 104.618 51.864 104.619 51.864 104.62C51.864 104.621 51.864 104.622 51.864 104.623C51.864 104.624 51.864 104.625 51.864 104.626C51.864 104.627 51.864 104.628 51.864 104.629C51.864 104.63 51.864 104.631 51.864 104.632C51.864 104.633 51.864 104.634 51.864 104.635C51.864 104.636 51.864 104.637 51.864 104.638C51.864 104.639 51.864 104.64 51.864 104.641C51.864 104.642 51.864 104.643 51.864 104.644C51.864 104.645 51.864 104.646 51.864 104.647C51.864 104.648 51.864 104.649 51.864 104.65C51.864 104.651 51.864 104.652 51.864 104.653C51.864 104.654 51.864 104.655 51.864 104.656C51.864 104.657 51.864 104.658 51.864 104.659C51.864 104.66 51.864 104.661 51.864 104.662C51.864 104.663 51.864 104.664 51.864 104.665C51.864 104.666 51.864 104.667 51.864 104.668C51.864 104.669 51.864 104.67 51.864 104.671C51.864 104.672 51.864 104.673 51.864 104.674C51.864 104.675 51.864 104.676 51.864 104.677C51.864 104.678 51.864 104.679 51.864 104.68C51.864 104.681 51.864 104.682 51.864 104.683C51.864 104.684 51.864 104.685 51.864 104.686C51.864 104.687 51.864 104.688 51.864 104.689C51.864 104.69 51.864 104.691 51.864 104.692C51.864 104.693 51.864 104.694 51.864 104.695C51.864 104.696 51.864 104.697 51.864 104.698C51.864 104.699 51.864 104.7 51.864 104.701C51.864 104.702 51.864 104.703 51.864 104.704C51.864 104.705 51.864 104.706 51.864 104.707C51.864 104.708 51.864 104.709 51.864 104.71C51.864 104.711 51.864 104.712 51.864 104.713C51.864 104.714 51.864 104.715 51.864 104.716C51.864 104.717 51.864 104.718 51.864 104.719C51.864 104.72 51.864 104.721 51.864 104.722C51.864 104.723 51.864 104.724 51.864 104.725C51.864 104.726 51.864 104.727 51.864 104.728C51.864 104.729 51.864 104.73 51.864 104.731C51.864 104.732 51.864 104.733 51.864 104.734C51.864 104.735 51.864 104.736 51.864 104.737C51.864 104.738 51.864 104.739 51.864 104.74C51.864 104.741 51.864 104.742 51.864 104.743C51.864 104.744 51.864 104.745 51.864 104.746C51.864 104.747 51.864 104.748 51.864 104.749C51.864 104.75 51.864 104.751 51.864 104.752C51.864 104.753 51.864 104.754 51.864 104.755C51.864 104.756 51.864 104.757 51.864 104.758C51.864 104.759 51.864 104.76 51.864 104.761C51.864 104.762 51.864 104.763 51.864 104.764C51.864 104.765 51.864 104.766 51.864 104.767C51.864 104.768 51.864 104.769 51.864 104.77C51.864 104.771 51.864 104.772 51.864 104.773C51.864 104.774 51.864 104.775 51.864 104.776C51.864 104.777 51.864 104.778 51.864 104.779C51.864 104.78 51.864 104.781 51.864 104.782C51.864 104.783 51.864 104.784 51.864 104.785C51.864 104.786 51.864 104.787 51.864 104.788C51.864 104.789 51.864 104.79 51.864 104.791C51.864 104.792 51.864 104.793 51.864 104.794C51.864 104.795 51.864 104.796 51.864 104.797C51.864 104.798 51.864 104.799 51.864 104.8C51.864 104.801 51.864 104.802 51.864 104.803C51.864 104.804 51.864 104.805 51.864 104.806C51.864 104.807 51.864 104.808 51.864 104.809C51.864 104.81 51.864 104.811 51.864 104.812C51.864 104.813 51.864 104.814 51.864 104.815C51.864 104.816 51.864 104.817 51.864 104.818C51.864 104.819 51.864 104.82 51.864 104.821C51.864 104.822 51.864 104.823 51.864 104.824C51.864 104.825 51.864 104.826 51.864 104.827C51.864 104.828 51.864 104.829 51.864 104.83C51.864 104.831 51.864 104.832 51.864 104.833C51.864 104.834 51.864 104.835 51.864 104.836C51.864 104.837 51.864 104.838 51.864 104.839C51.864 104.84 51.864 104.841 51.864 104.842C51.864 104.843 51.864 104.844 51.864 104.845C51.864 104.846 51.864 104.847 51.864 104.848C51.864 104.849 51.864 104.85 51.864 104.851C51.864 104.852 51.864 104.853 51.864 104.854C51.864 104.855 51.864 104.856 51.864 104.857C51.864 104.858 51.864 104.859 51.864 104.86C51.864 104.861 51.864 104.862 51.864 104.863C51.864 104.864 51.864 104.865 51.864 104.866C51.864 104.867 51.864 104.868 51.864 104.869C51.864 104.87 51.864 104.871 51.864 104.872C51.864 104.873 51.864 104.874 51.864 104.875C51.864 104.876 51.864 104.877 51.864 104.878C51.864 104.879 51.864 104.88 51.864 104.881C51.864 104.882 51.864 104.883 51.864 104.884C51.864 104.885 51.864 104.886 51.864 104.887C51.864 104.888 51.864 104.889 51.864 104.89C51.864 104.891 51.864 104.892 51.864 104.893C51.864 104.894 51.864 104.895 51.864 104.896C51.864 104.897 51.864 104.898 51.864 104.899C51.864 104.9 51.864 104.901 51.864 104.902C51.864 104.903 51.864 104.904 51.864 104.905C51.864 104.906 51.864 104.907 51.864 104.908C51.864 104.909 51.864 104.91 51.864 104.911C51.864 104.912 51.864 104.913 51.864 104.914C51.864 104.915 51.864 104.916 51.864 104.917C51.864 104.918 51.864 104.919 51.864 104.92C51.864 104.921 51.864 104.922 51.864 104.923C51.864 104.924 51.864 104.925 51.864 104.926C51.864 104.927 51.864 104.928 51.864 104.929C51.864 104.93 51.864 104.931 51.864 104.932C51.864 104.933 51.864 104.934 51.864 104.935C51.864 104.936 51.864 104.937 51.864 104.938C51.864 104.939 51.864 104.94 51.864 104.941C51.864 104.942 51.864 104.943 51.864 104.944C51.864 104.945 51.864 104.946 51.864 104.947C51.864 104.948 51.864 104.949 51.864 104.95C51.864 104.951 51.864 104.952 51.864 104.953C51.864 104.954 51.864 104.955 51.864 104.956C51.864 104.957 51.864 104.958 51.864 104.959C51.864 104.96 51.864 104.961 51.864 104.962C51.864 104.963 51.864 104.964 51.864 104.965C51.864 104.966 51.864 104.967 51.864 104.968C51.864 104.969 51.864 104.97 51.864 104.971C51.864 104.972 51.864 104.973 51.864 104.974C51.864 104.975 51.864 104.976 51.864 104.977C51.864 104.978 51.864 104.979 51.864 104.98C51.864 104.981 51.864 104.982 51.864 104.983C51.864 104.984 51.864 104.985 51.864 104.986C51.864 104.987 51.864 104.988 51.864 104.989C51.864 104.99 51.864 104.991 51.864 104.992H53.864ZM53.864 103.456C53.864 100.967 54.4247 98.5552 55.5566 96.2107L53.7554 95.3413C52.4979 97.9461 51.864 100.654 51.864 103.456H53.864ZM55.5566 96.2107C56.7011 93.8399 58.0608 92.1044 59.608 90.944L58.408 89.344C56.5419 90.7436 55.0002 92.7628 53.7554 95.3413L55.5566 96.2107ZM59.008 91.144H59.136V89.144H59.008V91.144ZM59.136 91.144C58.9668 91.144 58.8453 91.0909 58.7864 91.0582C58.7292 91.0264 58.7066 91.0008 58.7169 91.0111C58.7251 91.0193 58.7482 91.0444 58.7856 91.0954C58.8222 91.1453 58.8666 91.2119 58.9185 91.2985L60.6335 90.2695C60.4868 90.0251 60.3207 89.7865 60.1311 89.5969C59.9695 89.4353 59.6285 89.144 59.136 89.144V91.144ZM59.0689 91.4911C59.1145 91.5368 59.1149 91.5467 59.0998 91.5201C59.0847 91.4937 59.032 91.3918 59.032 91.232C59.032 91.0531 59.0982 90.8945 59.1871 90.7833C59.2265 90.734 59.2638 90.7022 59.288 90.684C59.3121 90.6659 59.3277 90.6581 59.3288 90.6576L60.2232 92.4464C60.5466 92.2847 61.032 91.9096 61.032 91.232C61.032 90.6846 60.6929 90.2867 60.4831 90.0769L59.0689 91.4911ZM59.0689 90.8449C58.1182 91.7956 57.4003 92.895 56.9227 94.137L58.7893 94.855C59.165 93.8783 59.7271 93.0151 60.4831 92.2591L59.0689 90.8449ZM56.9073 94.1798C56.5286 95.316 56.344 96.5332 56.344 97.824H58.344C58.344 96.7254 58.5008 95.724 58.8047 94.8122L56.9073 94.1798ZM56.344 97.824C56.344 99.5518 56.617 101.313 57.1542 103.103L59.0698 102.529C58.583 100.906 58.344 99.3389 58.344 97.824H56.344ZM57.1737 103.162C57.7965 104.852 58.5609 106.342 59.4743 107.621L61.1017 106.459C60.3085 105.348 59.6221 104.022 59.0503 102.47L57.1737 103.162ZM59.4743 107.621C61.7185 110.763 64.8025 113.255 68.6893 115.11L69.5507 113.306C65.9282 111.577 63.1241 109.29 61.1017 106.459L59.4743 107.621ZM68.7139 115.122C72.6632 116.877 76.5558 117.768 80.384 117.768V115.768C76.8735 115.768 73.2568 114.952 69.5261 113.294L68.7139 115.122ZM80.384 117.768C85.6259 117.768 89.8054 116.205 92.77 112.963L91.294 111.613C88.7973 114.344 85.2115 115.768 80.384 115.768V117.768ZM92.7596 112.974C95.7618 109.79 97.256 105.87 97.256 101.28H95.256C95.256 105.394 93.9342 108.813 91.3044 111.602L92.7596 112.974ZM97.256 101.28C97.256 98.5025 96.7179 95.7351 95.6526 92.983L93.7874 93.705C94.7701 96.2436 95.256 98.7668 95.256 101.28H97.256ZM95.6572 92.9953C94.2638 89.2505 92.3938 85.5993 90.0512 82.042L88.3808 83.142C90.6462 86.582 92.4455 90.0989 93.7828 93.6927L95.6572 92.9953ZM90.0663 82.0656C87.8559 78.4951 85.8166 75.0112 83.9482 71.6141L82.1958 72.5779C84.082 76.0074 86.1388 79.5209 88.3657 83.1184L90.0663 82.0656ZM83.9564 71.6292C82.4032 68.6864 81.64 65.7308 81.64 62.752H79.64C79.64 66.0878 80.4981 69.3616 82.1876 72.5628L83.9564 71.6292ZM81.64 62.752C81.64 59.6427 82.5931 56.6331 84.5441 53.7067L82.88 52.5973C80.7349 55.8149 79.64 59.2053 79.64 62.752H81.64ZM84.512 53.752C86.4569 51.1588 89.0163 49.0808 92.214 47.523L91.338 45.725C87.8797 47.4099 85.0631 49.6838 82.912 52.552L84.512 53.752ZM92.2232 47.5184C95.5105 45.8748 98.8143 45.064 102.144 45.064V43.064C98.4764 43.064 94.8681 43.9599 91.3288 45.7296L92.2232 47.5184ZM102.144 45.064C104.411 45.064 106.594 45.4683 108.697 46.2773L109.415 44.4106C107.081 43.513 104.655 43.064 102.144 43.064V45.064ZM108.697 46.2773C110.754 47.0687 112.634 48.3806 114.334 50.2423L115.81 48.8937C113.926 46.8301 111.795 45.326 109.415 44.4106L108.697 46.2773ZM114.24 50.1227C114.614 50.6843 114.84 51.4572 114.84 52.512H116.84C116.84 51.1774 116.554 49.9877 115.904 49.0133L114.24 50.1227ZM114.84 52.512C114.84 54.1022 114.52 55.1875 114.007 55.8918L115.625 57.0682C116.478 55.8952 116.84 54.3351 116.84 52.512H114.84ZM113.994 55.9108C113.194 57.066 112.319 58.5557 111.37 60.368L113.142 61.296C114.07 59.5243 114.902 58.1126 115.638 57.0492L113.994 55.9108ZM111.37 60.368C110.439 62.1451 109.826 63.485 109.622 64.3015L111.562 64.7865C111.699 64.2377 112.195 63.1029 113.142 61.296L111.37 60.368ZM110.145 63.6496C110.031 63.7063 109.66 63.8573 108.961 64.1197L109.663 65.9923C110.329 65.7426 110.811 65.5524 111.039 65.4384L110.145 63.6496ZM109.037 64.0945C108.924 64.1268 108.838 64.1442 108.775 64.1524C108.711 64.1608 108.684 64.1579 108.686 64.1581C108.69 64.1585 108.736 64.164 108.802 64.1995C108.873 64.2379 108.942 64.2977 108.992 64.3733L107.328 65.4827C107.618 65.9174 108.061 66.101 108.466 66.1459C108.842 66.1877 109.23 66.1195 109.587 66.0175L109.037 64.0945ZM109.054 65.3752C109.431 64.6218 109.92 63.3228 110.517 61.5322L108.619 60.8998C108.022 62.6932 107.572 63.8688 107.266 64.4808L109.054 65.3752ZM110.517 61.5322C111.138 59.6673 111.464 57.937 111.464 56.352H109.464C109.464 57.6683 109.192 59.1807 108.619 60.8998L110.517 61.5322ZM111.464 56.352C111.464 55.3836 111.42 54.3336 111.333 53.2033L109.339 53.3567C109.423 54.445 109.464 55.4431 109.464 56.352H111.464ZM111.336 53.28C111.336 51.7194 110.59 50.4214 109.282 49.4154L108.062 51.0006C108.973 51.7013 109.336 52.4513 109.336 53.28H111.336ZM109.348 49.4708C108.22 48.4371 106.792 47.5702 105.092 46.8544L104.316 48.6976C105.858 49.3471 107.076 50.1016 107.996 50.9452L109.348 49.4708ZM105.092 46.8544C103.316 46.1066 101.214 45.752 98.816 45.752V47.752C101.026 47.752 102.849 48.08 104.316 48.6976L105.092 46.8544ZM98.816 45.752C93.9227 45.752 90.0363 47.1825 87.323 50.1765L88.805 51.5195C91.0411 49.0521 94.3226 47.752 98.816 47.752V45.752ZM87.323 50.1765C84.706 53.0642 83.352 56.283 83.352 59.808H85.352C85.352 56.8476 86.4726 54.0932 88.805 51.5195L87.323 50.1765ZM83.352 59.808C83.352 61.5736 83.7244 63.3264 84.4544 65.0601L86.2976 64.2839C85.6623 62.7749 85.352 61.2851 85.352 59.808H83.352ZM84.4529 65.0566C85.775 68.2297 87.6226 71.2178 89.9877 74.0209L91.5163 72.7311C89.2734 70.0728 87.537 67.2583 86.2991 64.2874L84.4529 65.0566ZM89.9877 74.0209C92.2812 76.739 94.5325 79.5425 96.7416 82.4314L98.3304 81.2165C96.1022 78.3028 93.8308 75.4743 91.5163 72.7311L89.9877 74.0209ZM96.762 82.4572C99.0001 85.1926 100.738 88.1723 101.979 91.399L103.845 90.681C102.526 87.2517 100.68 84.0874 98.31 81.1908L96.762 82.4572ZM101.979 91.399C102.789 93.5068 103.192 95.6466 103.192 97.824H105.192C105.192 95.3934 104.741 93.0105 103.845 90.681L101.979 91.399ZM103.192 97.824C103.192 100.971 102.388 103.816 100.784 106.382L102.48 107.442C104.289 104.547 105.192 101.333 105.192 97.824H103.192ZM100.772 106.401C99.2266 109.004 97.1046 111.295 94.3878 113.271L95.5642 114.889C98.4794 112.769 100.795 110.281 102.492 107.423L100.772 106.401ZM94.3924 113.268C91.7428 115.172 88.844 116.664 85.6923 117.742L86.3397 119.634C89.6733 118.494 92.7478 116.913 95.5596 114.892L94.3924 113.268ZM85.6923 117.742C82.5479 118.818 79.4144 119.352 76.288 119.352V121.352C79.6469 121.352 82.9988 120.777 86.3397 119.634L85.6923 117.742Z" fill="black" mask="url(#path-2-outside-1_0_1)"/>
<path d="M65.2 105.128C64.5173 105.128 63.8987 105 63.344 104.744C62.832 104.445 62.576 103.827 62.576 102.888C62.576 101.395 62.96 99.9013 63.728 98.408C64.496 96.872 65.2853 95.528 66.096 94.376C66.8213 93.3947 67.632 92.4773 68.528 91.624C69.4667 90.728 70.4693 89.96 71.536 89.32C72.2187 88.8933 73.136 88.4453 74.288 87.976C75.4827 87.464 76.4853 87.208 77.296 87.208C77.9787 87.208 78.576 87.4 79.088 87.784C79.6 88.1253 79.856 88.7653 79.856 89.704C79.856 91.1547 79.472 92.648 78.704 94.184C77.9787 95.6773 77.2107 97 76.4 98.152C76.016 98.664 75.632 99.1547 75.248 99.624C74.864 100.051 74.4373 100.499 73.968 100.968C75.5467 100.968 76.9973 100.52 78.32 99.624C79.6427 98.6853 80.7947 97.5547 81.776 96.232L81.904 96.104C82.032 96.104 82.096 96.232 82.096 96.488C82.096 96.7867 82.0107 97.064 81.84 97.32C80.9867 98.5147 79.92 99.5813 78.64 100.52C77.36 101.416 75.9093 101.864 74.288 101.864C74.1173 101.864 73.9467 101.864 73.776 101.864C73.6053 101.864 73.4347 101.843 73.264 101.8C70.8747 104.019 68.1867 105.128 65.2 105.128ZM66.864 104.04C67.4613 104.04 68.1013 103.827 68.784 103.4C69.5093 102.973 70.064 102.568 70.448 102.184C71.1733 101.459 71.8347 100.691 72.432 99.88C73.0293 99.0267 73.584 98.1733 74.096 97.32C74.6933 96.296 75.2907 95.08 75.888 93.672C76.4853 92.264 76.784 90.9413 76.784 89.704C76.784 88.7227 76.4427 88.232 75.76 88.232C75.2053 88.232 74.5227 88.4667 73.712 88.936C72.944 89.4053 72.368 89.832 71.984 90.216C70.5333 91.7093 69.3173 93.3307 68.336 95.08C67.7813 96.0613 67.184 97.2133 66.544 98.536C65.904 99.8587 65.584 101.075 65.584 102.184C65.584 102.355 65.584 102.525 65.584 102.696C65.6267 102.824 65.6693 102.973 65.712 103.144C65.8827 103.741 66.2667 104.04 66.864 104.04Z" fill="#040404"/>
</svg>
